<?xml version="1.0" ?><!DOCTYPE svg  PUBLIC '-//W3C//DTD SVG 1.1//EN'  'http://www.w3.org/Graphics/SVG/1.1/DTD/svg11.dtd'><svg height="512px" style="shape-rendering:geometricPrecision; text-rendering:geometricPrecision; image-rendering:optimizeQuality; fill-rule:evenodd; clip-rule:evenodd" version="1.1" width="512px" xml:space="preserve" xmlns="http://www.w3.org/2000/svg" xmlns:xlink="http://www.w3.org/1999/xlink"><g id="Слой_x0020_1"><svg height="512px" style="shape-rendering:geometricPrecision; text-rendering:geometricPrecision; image-rendering:optimizeQuality; fill-rule:evenodd; clip-rule:evenodd" version="1.1" viewBox="0 0 512000 512000" width="512px" xml:space="preserve" xmlns="http://www.w3.org/2000/svg" xmlns:xlink="http://www.w3.org/1999/xlink"><defs><style type="text/css">
   <![CDATA[
    .fil0 {fill:black}
   ]]>
  </style></defs><g id="Слой_x0020_1"><path class="fil0" d="M256000 2999c139728,0 253001,113273 253001,253001 0,139728 -113273,253001 -253001,253001 -139728,0 -253001,-113273 -253001,-253001 0,-139728 113273,-253001 253001,-253001zm0 21000c128130,0 232001,103871 232001,232001 0,128130 -103871,232001 -232001,232001 -128130,0 -232001,-103871 -232001,-232001 0,-128130 103871,-232001 232001,-232001z"/></g></svg><svg height="256px" style="shape-rendering:geometricPrecision; text-rendering:geometricPrecision; image-rendering:optimizeQuality; fill-rule:evenodd; clip-rule:evenodd" version="1.1" viewBox="0 0 4335 4335" width="256px" x="128" xml:space="preserve" xmlns="http://www.w3.org/2000/svg" xmlns:xlink="http://www.w3.org/1999/xlink" y="128"><defs><style type="text/css">
   <![CDATA[
    .fil0 {fill:black}
   ]]>
  </style></defs><g id="Layer_x0020_1"><path class="fil0" d="M850 1334c0,9 0,17 0,25 -1,22 -2,45 -2,68 0,812 979,2004 1343,2822l73 0c376,-818 1339,-1963 1339,-2822 0,-22 -1,-45 -2,-67 0,-9 0,-17 0,-26 0,-23 -3,-46 -8,-70 -81,-684 -662,-1215 -1368,-1215 -677,0 -1239,488 -1355,1131 -13,50 -20,101 -20,153zm1398 1170c-7,0 -15,0 -22,0 -7,0 -15,0 -22,0l-12 -4c-218,-296 -524,-255 -642,-498l-73 81 -10 0c0,-13 1,-28 1,-45 3,-125 26,-251 43,-329 3,-22 6,-39 10,-52 7,0 13,-1 20,-1 22,42 74,130 159,167 113,50 83,45 83,45l-109 50c0,0 44,85 179,145 135,60 200,75 239,-256 22,-187 44,-507 59,-748 -61,0 -360,-89 -360,-89l0 -50c0,0 0,0 74,-10 55,-7 216,-20 296,-26 2,-43 5,-79 6,-104 -14,-6 -25,-14 -31,-24 -92,-20 -158,-71 -158,-131 0,-77 111,-140 248,-140 137,0 248,63 248,140 0,60 -65,110 -158,131 -6,10 -17,18 -31,24 1,26 3,61 6,104 81,6 242,19 296,26 74,10 74,10 74,10l0 50c0,0 -299,89 -360,89 15,242 37,561 59,748 39,331 105,316 240,256 135,-60 179,-145 179,-145l-109 -50c0,0 -30,5 83,-45 81,-36 133,-117 156,-161 8,4 17,7 26,10 2,10 4,23 6,37 17,78 40,205 43,329 0,18 1,32 1,45l-10 0 -73 -81c-118,243 -423,201 -642,498l-12 4zm-22 -1821c32,0 60,9 77,22 50,-15 83,-45 83,-79 0,-50 -72,-91 -160,-91 -88,0 -160,41 -160,91 0,34 34,64 83,79 18,-13 46,-22 77,-22z"/></g></svg></g></svg>